<?xml version="1.0" encoding="UTF-8" standalone="no"?>
<svg width="16px" height="16px" viewBox="0 0 16 16" version="1.1" xmlns="http://www.w3.org/2000/svg" xmlns:xlink="http://www.w3.org/1999/xlink">
    <!-- Generator: Sketch 41.2 (35397) - http://www.bohemiancoding.com/sketch -->
    <title>Customization_icon</title>
    <desc>Created with Sketch.</desc>
    <defs>
        <polygon id="path-1" points="2.98061672 0.0277399381 0.739229721 0.0277399381 0.739229721 2.26936471 2.98061672 2.26936471 2.98061672 0.0277399381"></polygon>
    </defs>
    <g id="Page-1" stroke="none" stroke-width="1" fill="none" fill-rule="evenodd">
        <g id="adiDT_PDP_Hero_Quick_Personalization" transform="translate(-882.000000, -462.000000)">
            <g id="Quick-personalization" transform="translate(882.000000, 461.000000)">
                <g id="Customization_icon" transform="translate(0.000000, 1.000000)">
                    <polygon id="Fill-1" fill="#231F1F" points="0 12.4912149 2.43635913 11.2738279 1.21817957 10.0548557"></polygon>
                    <g id="Group-3" transform="translate(7.925697, 3.935346)" font-size="11.9552" font-family="AdiHaus-Bold, AdiHaus" fill="#0082C8" font-weight="bold">
                        <text id="A">
                            <tspan x="0.571204954" y="8.11248297">A</tspan>
                        </text>
                    </g>
                    <polygon id="Fill-4" fill="#0082C8" points="0.0974860681 15.0313214 14.7410031 15.0313214 14.7410031 13.7394328 0.0974860681 13.7394328"></polygon>
                    <g id="Group-10" transform="translate(1.585139, 0.765067)">
                        <path d="M7.26287059,1.66027492 L0.546635294,8.37651022 C0.378610526,8.54453498 0.378610526,8.81717895 0.546635294,8.98520372 L1.15612136,9.59468978 C1.32414613,9.76271455 1.59679009,9.76271455 1.76481486,9.59468978 L8.48105015,2.87845449 L7.26287059,1.66027492 Z" id="Fill-5" fill="#231F1F"></path>
                        <g id="Group-9" transform="translate(7.133127, 0.000000)">
                            <mask id="mask-2" fill="white">
                                <use xlink:href="#path-1"></use>
                            </mask>
                            <g id="Clip-8"></g>
                            <path d="M2.85459814,0.762689783 L2.24511207,0.153996285 C2.07708731,-0.0148210526 1.80444334,-0.0148210526 1.63641858,0.153996285 L0.739229721,1.05118514 L1.95740929,2.26936471 L2.85459814,1.37217585 C3.02262291,1.20335851 3.02262291,0.930714551 2.85459814,0.762689783" id="Fill-7" fill="#231F1F" mask="url(#mask-2)"></path>
                        </g>
                    </g>
                </g>
            </g>
        </g>
    </g>
</svg>